<svg xmlns="http://www.w3.org/2000/svg" width="219" height="219" viewBox="0 0 219 219">
  <g id="Group_1" data-name="Group 1" transform="translate(-263 -79)">
    <circle id="Ellipse_1" data-name="Ellipse 1" cx="10.5" cy="10.5" r="10.5" transform="translate(461 277)" fill="#c608ba"/>
    <circle id="Ellipse_2" data-name="Ellipse 2" cx="10.5" cy="10.5" r="10.5" transform="translate(263 277)" fill="#c608ba"/>
    <circle id="Ellipse_3" data-name="Ellipse 3" cx="10.5" cy="10.5" r="10.5" transform="translate(296 277)" fill="#c608ba"/>
    <circle id="Ellipse_4" data-name="Ellipse 4" cx="10.5" cy="10.5" r="10.5" transform="translate(329 277)" fill="#c608ba"/>
    <circle id="Ellipse_5" data-name="Ellipse 5" cx="10.5" cy="10.5" r="10.5" transform="translate(362 277)" fill="#c608ba"/>
    <circle id="Ellipse_6" data-name="Ellipse 6" cx="10.5" cy="10.5" r="10.5" transform="translate(395 277)" fill="#c608ba"/>
    <circle id="Ellipse_7" data-name="Ellipse 7" cx="10.5" cy="10.5" r="10.5" transform="translate(428 277)" fill="#c608ba"/>
    <circle id="Ellipse_8" data-name="Ellipse 8" cx="10.5" cy="10.5" r="10.5" transform="translate(461 244)" fill="#c608ba"/>
    <circle id="Ellipse_10" data-name="Ellipse 10" cx="10.5" cy="10.5" r="10.5" transform="translate(296 244)" fill="#c608ba"/>
    <circle id="Ellipse_11" data-name="Ellipse 11" cx="10.5" cy="10.5" r="10.5" transform="translate(329 244)" fill="#c608ba"/>
    <circle id="Ellipse_12" data-name="Ellipse 12" cx="10.5" cy="10.5" r="10.5" transform="translate(362 244)" fill="#c608ba"/>
    <circle id="Ellipse_13" data-name="Ellipse 13" cx="10.5" cy="10.5" r="10.5" transform="translate(395 244)" fill="#c608ba"/>
    <circle id="Ellipse_14" data-name="Ellipse 14" cx="10.5" cy="10.5" r="10.5" transform="translate(428 244)" fill="#c608ba"/>
    <circle id="Ellipse_15" data-name="Ellipse 15" cx="10.5" cy="10.5" r="10.5" transform="translate(461 211)" fill="#c608ba"/>
    <circle id="Ellipse_20" data-name="Ellipse 20" cx="10.5" cy="10.5" r="10.5" transform="translate(428 211)" fill="#c608ba"/>
    <circle id="Ellipse_21" data-name="Ellipse 21" cx="10.5" cy="10.5" r="10.5" transform="translate(461 178)" fill="#c608ba"/>
    <circle id="Ellipse_25" data-name="Ellipse 25" cx="10.5" cy="10.5" r="10.5" transform="translate(428 178)" fill="#c608ba"/>
    <circle id="Ellipse_26" data-name="Ellipse 26" cx="10.5" cy="10.5" r="10.5" transform="translate(461 145)" fill="#c608ba"/>
    <circle id="Ellipse_27" data-name="Ellipse 27" cx="10.5" cy="10.5" r="10.5" transform="translate(428 145)" fill="#c608ba"/>
    <circle id="Ellipse_28" data-name="Ellipse 28" cx="10.5" cy="10.5" r="10.5" transform="translate(461 112)" fill="#c608ba"/>
    <circle id="Ellipse_29" data-name="Ellipse 29" cx="10.5" cy="10.5" r="10.5" transform="translate(428 112)" fill="#c608ba"/>
    <circle id="Ellipse_30" data-name="Ellipse 30" cx="10.5" cy="10.5" r="10.5" transform="translate(461 79)" fill="#c608ba"/>
  </g>
</svg>
